HIERARCHY
ROOT hip
{
	OFFSET 0.000000 0.000000 0.000000 
	CHANNELS 6 Xposition Yposition Zposition Zrotation Xrotation Yrotation
	JOINT abdomen
	{
		OFFSET 0.000000 3.402643 0.000000 
		CHANNELS 3 Zrotation Xrotation Yrotation
		JOINT chest
		{
			OFFSET 0.000000 8.438565 -0.680529 
			CHANNELS 3 Zrotation Xrotation Yrotation
			JOINT neck
			{
				OFFSET 0.000000 10.207942 -0.272212 
				CHANNELS 3 Zrotation Xrotation Yrotation
				JOINT head
				{
					OFFSET 0.000000 3.130431 0.000000 
					CHANNELS 3 Zrotation Xrotation Yrotation
					End Site
					{
						OFFSET 0.000000 3.130435 0.000000 
					}
				}
			}
			JOINT lCollar
			{
				OFFSET 3.470700 6.669187 -0.816635 
				CHANNELS 3 Zrotation Xrotation Yrotation
				JOINT lShldr
				{
					OFFSET 3.198488 0.000000 0.000000 
					CHANNELS 3 Zrotation Xrotation Yrotation
					JOINT lForeArm
					{
						OFFSET 10.139888 0.000000 0.000000 
						CHANNELS 3 Zrotation Xrotation Yrotation
						JOINT lHand
						{
							OFFSET 8.370511 0.000000 0.000000 
							CHANNELS 3 Zrotation Xrotation Yrotation
							End Site
							{
								OFFSET 4.083176 0.000000 0.000000 
							}
						}
					}
				}
			}
			JOINT rCollar
			{
				OFFSET -3.470700 6.669187 -0.816635 
				CHANNELS 3 Zrotation Xrotation Yrotation
				JOINT rShldr
				{
					OFFSET -3.198488 0.000000 0.000000 
					CHANNELS 3 Zrotation Xrotation Yrotation
					JOINT rForeArm
					{
						OFFSET -10.139888 0.000000 0.000000 
						CHANNELS 3 Zrotation Xrotation Yrotation
						JOINT rHand
						{
							OFFSET -8.370511 0.000000 0.000000 
							CHANNELS 3 Zrotation Xrotation Yrotation
							End Site
							{
								OFFSET -4.083176 0.000000 0.000000 
							}
						}
					}
				}
			}
		}
	}
	JOINT lThigh
	{
		OFFSET 5.308129 -1.633274 1.361059 
		CHANNELS 3 Zrotation Xrotation Yrotation
		JOINT lShin
		{
			OFFSET -2.041588 -20.007561 0.000000 
			CHANNELS 3 Zrotation Xrotation Yrotation
			JOINT lFoot
			{
				OFFSET 0.000000 -19.190928 -1.224953 
				CHANNELS 3 Zrotation Xrotation Yrotation
				End Site
				{
					OFFSET 0.000000 -2.449906 4.627600 
				}
			}
		}
	}
	JOINT rThigh
	{
		OFFSET -5.308129 -1.633274 1.361059 
		CHANNELS 3 Zrotation Xrotation Yrotation
		JOINT rShin
		{
			OFFSET 2.041588 -20.007561 0.000000 
			CHANNELS 3 Zrotation Xrotation Yrotation
			JOINT rFoot
			{
				OFFSET 0.000000 -19.190928 -1.224953 
				CHANNELS 3 Zrotation Xrotation Yrotation
				End Site
				{
					OFFSET 0.000000 -2.449906 4.627600 
				}
			}
		}
	}
}
MOTION
Frames: 15
Frame Time: 0.033333
0.008188 46.884903 0.037542 -0.000000 0.000000 -0.000000 -0.000000 -0.000002 -0.000000 -0.000000 -0.244142 -0.000000 -0.000000 0.966794 -0.000000 0.000000 -0.644532 -0.400391 -5.687435 -0.268816 2.011532 -54.954464 19.085957 32.861786 -18.682730 13.500584 -59.944588 -17.291611 -9.283325 4.180733 5.677635 -0.269442 -2.021281 58.383450 19.084253 -34.320694 19.138226 12.172403 55.022144 -9.500814 -16.296560 8.901369 2.426825 -13.358433 1.333058 -3.454432 25.364193 -0.598464 0.393755 -12.389382 0.176695 -4.887090 -13.375867 -1.240358 2.259571 25.409004 0.373150 1.251060 -12.754788 -1.725872 
0.018643 47.021870 0.173139 -0.000000 0.000000 -0.000000 -0.000000 -0.000002 -0.000000 -0.000000 -0.546876 -0.000000 -0.000000 2.167966 -0.000000 0.000000 -1.425780 -0.996094 -5.687435 -0.268816 2.011532 -56.460983 19.575357 33.928333 -18.305107 11.503766 -53.779087 -18.063618 -7.071529 -0.450316 5.677635 -0.269442 -2.021281 60.458435 19.444635 -36.013199 19.653019 9.460993 46.443161 -7.834222 -13.689381 11.810986 2.339825 -12.561351 1.253800 -3.273743 24.088326 -0.853495 0.463907 -11.971757 0.392274 -4.810997 -12.568858 -1.163787 2.234471 24.046991 0.401768 1.225746 -12.214203 -1.844891 
0.028712 47.165020 0.334624 -0.000000 0.000000 -0.000000 -0.000000 -0.000002 -0.000000 -0.000000 -0.830078 -0.000000 -0.000000 3.281247 -0.000000 0.000000 -2.226562 -1.152344 -5.687435 -0.268816 2.011532 -58.348679 19.981747 35.019543 -17.703390 9.476134 -46.827351 -18.541603 -4.609660 -5.445989 5.677635 -0.269442 -2.021281 62.861794 19.648458 -37.530731 19.531073 6.726326 37.559483 -6.128739 -10.631658 15.090457 2.241251 -11.604295 1.198189 -2.961418 22.540907 -0.925258 0.275693 -11.429401 0.313742 -4.755226 -11.638027 -1.038845 2.348705 22.645155 0.310856 1.128225 -11.770044 -1.921975 
0.036384 47.307026 0.548262 -0.000000 0.000000 -0.000000 -0.000000 -0.000002 -0.000000 -0.000000 -1.005862 -0.000000 -0.000000 3.994135 -0.000000 -0.000000 -3.007811 -0.000000 -5.687435 -0.268816 2.011532 -61.001011 20.149063 35.994362 -16.806271 7.256399 -38.638996 -18.797918 -1.934983 -10.913980 5.677635 -0.269442 -2.021281 65.779388 19.459654 -38.345997 18.339136 4.313796 28.831276 -4.512314 -6.873545 19.247919 2.175627 -10.683724 1.104225 -2.912791 21.229984 -0.841217 0.237174 -11.108450 0.275005 -4.709088 -10.673983 -0.912317 2.167531 21.164970 0.223665 1.315061 -11.198311 -1.825306 
0.040151 47.441559 0.833133 -0.000000 0.000000 -0.000000 -0.000000 -0.000002 -0.000000 -0.000000 -1.035154 -0.000000 -0.000000 4.121091 -0.000000 -0.000000 -3.701170 2.978516 -5.687435 -0.268816 2.011532 -64.249275 20.030109 36.691677 -15.680709 5.049022 -29.645195 -18.790350 0.597930 -16.275820 5.677635 -0.269442 -2.021281 68.938660 18.862032 -38.214146 16.227278 2.791642 21.213455 -3.319407 -2.746581 23.921080 2.118485 -9.552216 0.973848 -2.686198 19.664293 -0.835054 0.213284 -10.708284 0.268248 -4.641296 -9.580093 -0.866406 2.000123 19.618759 0.293471 1.453434 -10.752565 -1.828618 
0.040534 47.566345 1.179571 -0.000000 0.000000 -0.000000 -0.000000 -0.000002 -0.000000 -0.000000 -1.005862 -0.000000 -0.000000 3.994135 -0.000000 -0.000000 -4.326172 7.158202 -5.687435 -0.268816 2.011532 -65.544479 19.905445 36.829411 -15.440283 3.684627 -24.211060 -18.757437 1.346174 -17.930012 5.677635 -0.269442 -2.021281 69.985664 18.547600 -37.886333 15.392510 2.279979 18.176691 -3.077231 -1.359251 25.549828 2.061217 -8.434527 0.874968 -2.746531 18.280313 -0.667308 0.115263 -10.360271 0.120380 -4.578371 -8.425788 -0.767524 1.881586 18.240318 0.197657 1.571448 -10.552490 -1.822200 
0.038563 47.680168 1.570727 -0.000000 0.000000 -0.000000 -0.000000 -0.000002 -0.000000 -0.000000 -0.996091 -0.000000 -0.000000 3.964839 -0.000000 -0.000000 -4.873045 11.582032 -5.687435 -0.268816 2.011532 -63.184269 20.031193 36.316650 -16.901382 3.528466 -25.602570 -18.893503 -0.569309 -13.785743 5.677635 -0.269442 -2.021281 67.533463 19.064007 -38.108814 17.246014 2.474881 21.739876 -3.827309 -4.668815 21.953949 2.045024 -7.310175 0.781966 -2.418620 16.902075 -0.809569 -0.096239 -10.136106 0.166897 -4.516350 -7.230143 -0.655529 2.029412 16.810482 0.132024 1.278445 -10.300792 -1.833943 
0.035267 47.781765 1.989747 -0.000000 0.000000 -0.000000 -0.000000 -0.000002 -0.000000 -0.000000 -1.005862 -0.000000 -0.000000 3.994135 -0.000000 -0.000000 -5.341796 15.332027 -5.687435 -0.268816 2.011532 -61.001011 20.149063 35.994362 -17.817499 4.081602 -28.428661 -18.797918 -1.934983 -10.913980 5.677635 -0.269442 -2.021281 65.779388 19.459654 -38.345997 18.583479 3.045437 25.025639 -4.512314 -6.873545 19.247919 1.963719 -6.021405 0.667501 -2.431590 15.434384 -0.645821 0.040015 -9.735873 0.088963 -4.465270 -6.051714 -0.528280 1.772589 15.420715 -0.023217 1.575206 -10.211769 -1.673735 
0.031672 47.869892 2.419782 -0.000000 0.000000 -0.000000 -0.000000 -0.000002 -0.000000 -0.000000 -1.005862 -0.000000 -0.000000 4.003901 -0.000000 -0.000000 -5.742187 17.441402 -5.687435 -0.268816 2.011532 -62.464100 20.011730 36.504391 -16.267328 4.289656 -27.608912 -18.870985 0.037087 -15.088057 5.677635 -0.269442 -2.021281 68.280663 18.934145 -38.084427 16.610563 2.927500 22.461401 -3.595601 -3.656498 23.049713 1.907844 -4.852801 0.547947 -2.165379 14.212874 -0.585221 -0.144703 -9.873117 0.060398 -4.425895 -4.854078 -0.469896 1.600803 14.084167 -0.029595 1.730987 -10.111916 -1.780322 
0.028810 47.943310 2.843981 -0.000000 0.000000 -0.000000 -0.000000 -0.000002 -0.000000 -0.000000 -1.005862 -0.000000 -0.000000 3.994135 -0.000000 0.000000 -6.083987 16.992188 -5.687435 -0.268816 2.011532 -63.829052 19.908428 36.851650 -15.213006 4.444731 -26.924574 -18.759274 1.355666 -17.979181 5.677635 -0.269442 -2.021281 70.021530 18.567511 -37.891521 15.249928 2.975769 20.649511 -3.127762 -1.322989 25.600231 2.053025 -4.074421 0.483826 -2.040382 13.955031 -0.587862 -0.493115 -10.165634 0.026661 -4.292046 -4.016720 -0.668491 1.618413 13.751637 0.135326 1.468251 -10.591850 -1.648257 
0.027477 48.001308 3.248517 -0.000000 0.000000 -0.000000 -0.000000 -0.000002 -0.000000 -0.000000 -1.005862 -0.000000 -0.000000 3.994135 -0.000000 -0.000000 -6.367189 13.359371 -5.687435 -0.268816 2.011532 -61.690075 20.081022 36.212086 -17.055029 4.819516 -30.150093 -18.867006 -1.184490 -12.516990 5.677635 -0.269442 -2.021281 66.761795 19.282434 -38.253979 17.715334 3.497269 25.667488 -4.147873 -5.650441 20.783678 1.779453 -3.676996 0.432183 -1.982043 13.951611 -0.644834 -0.249389 -10.576340 0.139157 -4.543525 -3.606528 -0.333316 1.537802 13.731933 -0.146439 1.971895 -10.940731 -1.569034 
0.027563 48.045250 3.631654 -0.000000 0.000000 -0.000000 -0.000000 -0.000002 -0.000000 -0.000000 -1.005862 -0.000000 -0.000000 3.994135 -0.000000 -0.000000 -6.591797 7.207028 -5.687435 -0.268816 2.011532 -61.014919 20.139570 36.034729 -17.533148 5.114881 -31.500702 -18.803932 -1.906728 -11.007807 5.677635 -0.269442 -2.021281 65.847916 19.494768 -38.355812 18.356176 4.004170 27.863689 -4.539465 -6.803238 19.367720 2.079159 -3.194874 0.417199 -2.174485 14.041940 -0.629185 -0.331800 -11.142979 0.132713 -4.271503 -3.105055 -0.616492 1.618282 13.732344 0.125124 1.487393 -11.489538 -1.723325 
0.028720 48.077038 3.994686 -0.000000 0.000000 -0.000000 -0.000000 -0.000002 -0.000000 -0.000000 -1.005862 -0.000000 -0.000000 3.994135 -0.000000 -0.000000 -6.767579 -0.478516 -5.687435 -0.268816 2.011532 -63.855232 19.914391 36.896152 -14.982226 5.084917 -29.146572 -18.769287 1.370883 -18.096216 5.677635 -0.269442 -2.021281 70.085922 18.598331 -37.899593 15.010071 3.855030 23.875139 -3.181882 -1.272429 25.677853 1.961421 -2.552755 0.339783 -2.061181 13.786382 -0.523144 -0.420175 -11.592190 0.091762 -4.347596 -2.549938 -0.542848 1.527282 13.664307 0.126254 1.745318 -11.890013 -1.605443 
0.030608 48.098572 4.338899 -0.000000 0.000000 -0.000000 -0.000000 -0.000002 -0.000000 -0.000000 -1.005862 -0.000000 -0.000000 3.994135 -0.000000 -0.000000 -6.894530 -8.691408 -5.687435 -0.268816 2.011532 -61.041050 20.145872 36.079300 -17.233309 5.931203 -33.992790 -18.825005 -1.884203 -11.113535 5.677635 -0.269442 -2.021281 65.909363 19.533054 -38.366566 18.051655 5.043743 30.980804 -4.601665 -6.776554 19.449560 1.969385 -1.811333 0.264751 -2.066204 13.165296 -0.461048 -0.333467 -11.786814 -0.003825 -4.372211 -1.828805 -0.475453 1.664800 13.157541 0.075728 1.654914 -12.140662 -1.616637 
0.032881 48.111744 4.665585 -0.000000 0.000000 -0.000000 -0.000000 -0.000002 -0.000000 -0.000000 -1.005862 -0.000000 -0.000000 3.994135 -0.000000 0.000000 -6.972656 -16.454758 -5.687435 -0.268816 2.011532 -63.881432 19.920324 36.940655 -14.707911 5.699079 -31.373135 -18.785629 1.397779 -18.210123 5.677635 -0.269442 -2.021281 70.150299 18.629156 -37.907669 14.773174 4.529791 26.332661 -3.236166 -1.210587 25.769176 1.958911 -1.158832 0.225627 -1.952526 12.746896 -0.496898 -0.479038 -12.002219 0.071324 -4.337809 -1.175961 -0.322438 1.490897 12.620716 0.007314 1.818620 -12.311494 -1.646440 
